Coordinates
version=1
nRows=8
nColumns=63
inDegrees=yes

Units are S.I. units (second, meters, Newtons, ...)
If the header above contains a line with 'inDegrees', this indicates whether rotational values are in degrees (yes) or radians (no).

endheader
time	pelvis_tilt	pelvis_list	pelvis_rotation	pelvis_tx	pelvis_ty	pelvis_tz	hip_flexion_r	hip_adduction_r	hip_rotation_r	knee_angle_r	knee_angle_r_beta	ankle_angle_r	subtalar_angle_r	mtp_angle_r	hip_flexion_l	hip_adduction_l	hip_rotation_l	knee_angle_l	knee_angle_l_beta	ankle_angle_l	subtalar_angle_l	mtp_angle_l	L5_S1_Flex_Ext	L5_S1_Lat_Bending	L5_S1_axial_rotation	L4_L5_Flex_Ext	L4_L5_Lat_Bending	L4_L5_axial_rotation	L3_L4_Flex_Ext	L3_L4_Lat_Bending	L3_L4_axial_rotation	L2_L3_Flex_Ext	L2_L3_Lat_Bending	L2_L3_axial_rotation	L1_L2_Flex_Ext	L1_L2_Lat_Bending	L1_L2_axial_rotation	L1_T12_Flex_Ext	L1_T12_Lat_Bending	L1_T12_axial_rotation	Abs_r3	Abs_r2	Abs_r1	Abs_t1	Abs_t2	neck_flexion	neck_bending	neck_rotation	arm_flex_r	arm_add_r	arm_rot_r	elbow_flex_r	pro_sup_r	wrist_flex_r	wrist_dev_r	arm_flex_l	arm_add_l	arm_rot_l	elbow_flex_l	pro_sup_l	wrist_flex_l	wrist_dev_l
      0.00000000	     -0.07240942	     -2.52255024	     95.83380579	      0.18053519	      0.74989505	      0.77279918	      2.18941802	     -0.65380642	    -14.33744822	      8.26283058	      0.14421360	     34.19127850	     13.00216268	      0.00000000	      1.34764519	      1.41316987	     16.49745116	      2.26818517	      0.03958730	     28.95576118	    -10.77845007	      0.00000000	      0.43891933	      0.12178544	     -0.48398017	      0.81511708	      0.16197464	     -0.51422893	      0.72110056	      0.29610912	     -0.51422893	      0.50164090	      0.29610912	     -0.42348265	      0.40758049	      0.24834487	     -0.39323389	      0.25079850	      0.18864565	     -0.36298513	      3.13515686	      1.37766127	     -2.69175250	      0.00000000	      0.00000000	     23.23385135	     -1.67620653	     -5.36439467	     24.27995670	    -10.97396395	     90.94411219	     53.12112853	     27.66702327	      6.60832347	     13.99120140	     11.26658275	    -10.58587963	     54.81743852	     64.04288671	     65.03603571	      1.74611453	     16.88798588
      0.01694915	     -0.53355402	     -2.32382392	     96.14722287	      0.18055469	      0.75023126	      0.77281681	      1.46881669	     -1.02625730	    -14.46296097	      7.59450985	      0.13254920	     33.85726238	     12.95382607	      0.00000000	      1.04255591	      1.89835967	     16.69618736	      2.19866725	      0.03837398	     29.27697788	    -10.72792549	      0.00000000	      0.40948475	      0.05734861	     -0.55320388	      0.76045412	      0.07627365	     -0.58777912	      0.67274249	      0.13943740	     -0.58777912	      0.46800012	      0.13943740	     -0.48405339	      0.38024754	      0.11694528	     -0.44947815	      0.23397958	      0.08883299	     -0.41490291	      2.92490860	      0.64873889	     -3.07675401	      0.00000000	      0.00000000	     22.96064870	     -1.31810197	     -5.47209922	     23.46396610	    -11.28516067	     89.74106038	     53.55271953	     28.64607116	      6.16603081	     11.04142416	     12.22728518	    -11.43554704	     56.59388686	     64.33032891	     64.83584858	      2.85699032	     16.31406601
      0.03389831	     -0.86589256	     -2.31280420	     96.28764300	      0.18071435	      0.75036075	      0.77300160	      1.15001818	     -1.34349218	    -14.83942688	      7.20985767	      0.12583576	     33.71931077	     13.34137573	      0.00000000	      1.03874978	      2.26727542	     16.58779563	      2.22643092	      0.03885855	     29.69297152	    -10.28985686	      0.00000000	      0.40480212	      0.00247179	     -0.51749441	      0.75175801	      0.00328748	     -0.54983781	      0.66504940	      0.00600990	     -0.54983781	      0.46264834	      0.00600990	     -0.45280761	      0.37589924	      0.00504047	     -0.42046421	      0.23130393	      0.00382880	     -0.38812081	      2.89146103	      0.02796134	     -2.87814866	      0.00000000	      0.00000000	     22.78799298	     -1.24695466	     -6.58556248	     22.41064790	    -11.62236255	     87.41458366	     53.65591907	     36.53613958	      6.42971300	      8.10076855	     13.40924252	    -12.01324486	     58.93577613	     64.34883436	     62.96982942	      3.00267528	     15.47152616
      0.05084746	     -1.19819070	     -2.28889834	     96.38112271	      0.18098364	      0.75059408	      0.77316729	      0.86396556	     -1.61830887	    -14.71562993	      6.83503907	      0.11929394	     33.53391561	     13.02305830	      0.00000000	      1.03925123	      2.60975267	     15.18054182	      2.23528913	      0.03901316	     30.36095932	     -8.17517585	      0.00000000	      0.39640536	     -0.04916803	     -0.47383734	      0.73616440	     -0.06539348	     -0.50345217	      0.65125437	     -0.11954715	     -0.50345217	      0.45305169	     -0.11954715	     -0.41460767	      0.36810202	     -0.10026345	     -0.38499284	      0.22650603	     -0.07616128	     -0.35537800	      2.83148388	     -0.55619861	     -2.63534112	      0.00000000	      0.00000000	     22.68481225	     -1.05785170	     -7.22379024	     21.66043551	    -11.77929745	     85.94159349	     53.99076177	     36.45461757	      5.73072434	      7.27331192	     14.09902461	    -12.29087307	     60.07519021	     64.31586459	     62.50325220	      3.35141305	     15.23646034
      0.06779661	     -1.43222654	     -2.24571150	     96.50981331	      0.18102567	      0.75088221	      0.77343541	      0.63645027	     -1.89242305	    -15.81406025	      6.62378579	      0.11560687	     33.56691686	     14.28767226	      0.00000000	      1.00799503	      2.86773563	     15.42011848	      2.15650629	      0.03763814	     30.48215321	     -8.09377096	      0.00000000	      0.38687591	     -0.07894368	     -0.44490732	      0.71846726	     -0.10499510	     -0.47271403	      0.63559843	     -0.19194367	     -0.47271403	      0.44216048	     -0.19194367	     -0.38929391	      0.35925297	     -0.16098195	     -0.36148720	      0.22106090	     -0.12228376	     -0.33368049	      2.76341595	     -0.89302671	     -2.47444106	      0.00000000	      0.00000000	     22.49946666	     -0.98040199	     -7.13837637	     21.25779042	    -11.90041105	     85.07850876	     54.50177244	     33.18427632	      4.47864724	      7.84369265	     14.61318394	    -12.39139915	     60.90509182	     64.20935410	     61.72639623	      3.23369736	     14.94732266
      0.08474576	     -1.64335332	     -2.22081329	     96.57561384	      0.18121612	      0.75117599	      0.77370284	      0.49444439	     -2.10531727	    -16.25819651	      6.47395938	      0.11299191	     33.55056914	     14.67109334	      0.00000000	      1.03486499	      3.07878165	     14.49897938	      2.11580529	      0.03692777	     30.89665917	     -6.45738647	      0.00000000	      0.37604990	     -0.10843813	     -0.39832495	      0.69836228	     -0.14422272	     -0.42322025	      0.61781239	     -0.26365648	     -0.42322025	      0.42978743	     -0.26365648	     -0.34853433	      0.34919994	     -0.22112704	     -0.32363902	      0.21487491	     -0.16797067	     -0.29874371	      2.68608686	     -1.22667387	     -2.21536385	      0.00000000	      0.00000000	     22.41092487	     -0.91723607	     -7.34615479	     20.92311184	    -11.92022029	     84.10070945	     54.82587455	     30.23326541	      3.65023747	      8.70838442	     14.89182369	    -12.36372598	     61.19241875	     64.07197414	     61.53520993	      3.11114960	     14.87254619
      0.10169492	     -1.68066770	     -2.24902522	     96.51784648	      0.18142797	      0.75128486	      0.77422329	      0.52505108	     -2.14852458	    -16.30976414	      6.42933433	      0.11221305	     33.52318050	     14.64532744	      0.00000000	      1.13860869	      3.14174782	     14.62395524	      2.04937929	      0.03576842	     30.95534769	     -6.39328750	      0.00000000	      0.37004767	     -0.11121367	     -0.38143355	      0.68721554	     -0.14791418	     -0.40527315	      0.60795132	     -0.27040492	     -0.40527315	      0.42292749	     -0.27040492	     -0.33375436	      0.34362627	     -0.22678692	     -0.30991476	      0.21144524	     -0.17226998	     -0.28607516	      2.64321353	     -1.25807129	     -2.12141897	      0.00000000	      0.00000000	     22.36174762	     -0.92901459	     -7.33058251	     21.14990942	    -11.86633815	     83.90621021	     54.79103038	     30.16984700	      3.62256062	      8.67417320	     15.01100788	    -12.33114835	     61.06923353	     64.02249579	     61.51497437	      3.04855146	     14.85689503
      0.11864407	     -1.97087574	     -2.25327159	     96.49256278	      0.18186844	      0.75166321	      0.77418191	      0.46690492	     -2.46303521	    -16.71878544	      6.42694738	      0.11217139	     33.31674918	     14.95401693	      0.00000000	      1.06625355	      3.41470236	     15.12791365	      1.81919024	      0.03175086	     30.84785163	     -6.42016821	      0.00000000	      0.35833818	     -0.15534597	     -0.28469664	      0.66546984	     -0.20661014	     -0.30249018	      0.58871380	     -0.37770819	     -0.30249018	      0.40954471	     -0.37770819	     -0.24910956	      0.33275284	     -0.31678150	     -0.23131602	      0.20475444	     -0.24063091	     -0.21352248	      2.55957380	     -1.75730468	     -1.58339729	      0.00000000	      0.00000000	     22.38014710	     -0.97112852	     -8.20538812	     20.34553786	    -11.83515127	     81.74888613	     54.94910558	     26.72059449	      2.84562324	      9.97920773	     15.23206895	    -12.29429472	     61.48303453	     64.05330926	     61.40037997	      1.69095771	     14.94333801
